<?xml version="1.0" encoding="UTF-8"?>
<svg id="Calque_1" xmlns="http://www.w3.org/2000/svg" version="1.1" viewBox="0 0 500 500">
  <!-- Generator: Adobe Illustrator 29.8.5, SVG Export Plug-In . SVG Version: 2.1.1 Build 2)  -->
  <defs>
    <style>
      .st0 {
        fill: #f4f4f4;
      }

      .st1 {
        fill: #575da7;
      }
    </style>
  </defs>
  <g>
    <path class="st1" d="M76.2,257.99v19.01h-19.44v-54.87h0l26.57,19.66h0v-18.79h19.44l.07,54.87h0l-26.64-19.87h0Z"/>
    <path class="st1" d="M108.6,223h38.09v17.28h-20.02l14.91,9.36h0l-14.98,10.08h20.09v17.28h-38.09v-54h0Z"/>
    <path class="st1" d="M163.32,250l-15.55-27h21.24l4.32,8.64h0l4.32-8.64h21.24l-15.55,27h0l15.55,27h-21.24l-4.32-8.64h0l-4.32,8.64h-21.24l15.55-27h0Z"/>
    <path class="st1" d="M201.4,223h23.62c9,0,16.63,6.91,16.63,14.11,0,5.11-2.88,9.58-6.41,12.1h0c4.68,2.38,8.64,6.19,8.64,12.6,0,7.34-7.13,15.19-19.3,15.19h-23.19v-54h.01,0ZM225.74,240.93c0-2.23-1.44-3.89-3.31-3.89h-1.58v7.78h1.58c1.87,0,3.31-1.66,3.31-3.89h0ZM225.74,259.07c0-2.23-1.44-3.89-3.31-3.89h-1.58v7.78h1.58c1.87,0,3.31-1.66,3.31-3.89h0Z"/>
    <path class="st1" d="M302.49,250c0-14.62,12.38-27.72,28.01-27.72s28.01,13.1,28.01,27.72-12.46,27.72-28.01,27.72-28.01-13.11-28.01-27.72h0ZM338.78,250.46c.19-4.77-2.63-8.65-7.07-9.24-5.21-.69-9.56,3.71-9.48,8.96.08,4.69,3.11,8.37,7.69,8.66s8.66-3.63,8.86-8.38Z"/>
    <path class="st1" d="M373.7,258.35l-13.75-19.59h0c9.72-10.15,22.97-15.99,37.73-16.13h0l2.16,17.86h0c-3.24-.29-11.09.65-13.32,2.66l14.83,21.1h0c-8.28,8.5-19.87,14.11-37.3,13.25l-4.32-18.22h0c3.82.43,10.51.94,13.97-.94h0Z"/>
    <path class="st1" d="M413.01,240.28h-10.8v-17.28h41.04v17.28h-10.8v36.72h-19.44v-36.72h0Z"/>
  </g>
  <path class="st1" d="M272.76,222.28c-15.63,0-28.01,13.1-28.01,27.72s12.46,27.72,28.01,27.72,28.01-13.1,28.01-27.72-12.38-27.72-28.01-27.72ZM268.02,272.55l5.12-20.47-9.15.07,13.38-24.69h0c-.52,6.31-1.05,12.61-1.57,18.92h9.11l-16.89,26.17Z"/>
  <path class="st1" d="M484.52-269.92c0,122.41-104.33,232.09-234.52,232.09S15.48-147.59,15.48-269.92"/>
  <path class="st1" d="M15.48-269.92c0-122.41,103.66-232.09,234.52-232.09s234.52,109.68,234.52,232.09"/>
  <path class="st1" d="M319.33-269.92"/>
  <g>
    <path class="st0" d="M288.43-458.68s0,.02,0,.03c0,0,0-.02.01-.02h0Z"/>
    <path class="st0" d="M351.57-300.28h-76.28c4.38-52.79,8.76-105.59,13.14-158.38-37.34,68.9-74.67,137.8-112.02,206.7,25.54-.2,51.07-.39,76.61-.59l-42.87,171.39,141.42-219.12Z"/>
  </g>
  <path class="st1" d="M1359.07-270.03"/>
  <path class="st1" d="M1314.19-458.79c-37.34,68.91-74.68,137.82-112.03,206.72,25.54-.2,51.07-.39,76.61-.59h0l-42.87,171.39h0l141.42-219.12h-76.28c4.38-52.8,8.76-105.61,13.14-158.41h.01Z"/>
  <g>
    <path class="st1" d="M-452.73,252.81v19.01h-19.44v-54.87h0l26.57,19.66h0v-18.79h19.44l.07,54.87h0l-26.64-19.87h0Z"/>
    <path class="st1" d="M-420.33,217.82h38.09v17.28h-20.02l14.91,9.36h0l-14.98,10.08h20.09v17.28h-38.09v-54h0Z"/>
    <path class="st1" d="M-365.61,244.82l-15.55-27h21.24l4.32,8.64h0l4.32-8.64h21.24l-15.55,27h0l15.55,27h-21.24l-4.32-8.64h0l-4.32,8.64h-21.24l15.55-27h0Z"/>
    <path class="st1" d="M-327.53,217.82h23.62c9,0,16.63,6.91,16.63,14.11,0,5.11-2.88,9.58-6.41,12.1h0c4.68,2.38,8.64,6.19,8.64,12.6,0,7.34-7.13,15.19-19.3,15.19h-23.19v-54h.01,0ZM-303.19,235.75c0-2.23-1.44-3.89-3.31-3.89h-1.58v7.78h1.58c1.87,0,3.31-1.66,3.31-3.89h0ZM-303.19,253.89c0-2.23-1.44-3.89-3.31-3.89h-1.58v7.78h1.58c1.87,0,3.31-1.66,3.31-3.89h0Z"/>
    <path class="st1" d="M-226.44,244.82c0-14.62,12.38-27.72,28.01-27.72s28.01,13.1,28.01,27.72-12.46,27.72-28.01,27.72-28.01-13.11-28.01-27.72h0ZM-190.15,245.28c.19-4.77-2.63-8.65-7.07-9.24-5.21-.69-9.56,3.71-9.48,8.96.08,4.69,3.11,8.37,7.69,8.66s8.66-3.63,8.86-8.38Z"/>
    <path class="st1" d="M-155.23,253.17l-13.75-19.59h0c9.72-10.15,22.97-15.99,37.73-16.13h0l2.16,17.86h0c-3.24-.29-11.09.65-13.32,2.66l14.83,21.1h0c-8.28,8.5-19.87,14.11-37.3,13.25l-4.32-18.22h0c3.82.43,10.51.94,13.97-.94h0Z"/>
    <path class="st1" d="M-115.92,235.1h-10.8v-17.28h41.04v17.28h-10.8v36.72h-19.44v-36.72h0Z"/>
  </g>
  <path class="st1" d="M-256.17,217.1c-15.63,0-28.01,13.1-28.01,27.72s12.46,27.72,28.01,27.72,28.01-13.1,28.01-27.72-12.38-27.72-28.01-27.72ZM-260.91,267.37l5.12-20.47-9.15.07,13.38-24.69h0c-.52,6.31-1.05,12.61-1.57,18.92h9.11l-16.89,26.17Z"/>
</svg>